<mxfile host="app.diagrams.net" modified="2023-12-26T19:58:45.681Z" agent="Mozilla/5.0 (Windows NT 10.0; Win64; x64) AppleWebKit/537.36 (KHTML, like Gecko) Chrome/118.0.0.0 YaBrowser/23.11.0.0 Safari/537.36" etag="5VPWQzKYJnM5wgL0_Xim" version="22.1.11" type="device">
  <diagram id="RHb6YyqEdLlYBZBPuBDq" name="Страница 1">
    <mxGraphModel dx="2261" dy="791" grid="1" gridSize="10" guides="1" tooltips="1" connect="1" arrows="1" fold="1" page="1" pageScale="1" pageWidth="827" pageHeight="1169" math="0" shadow="0">
      <root>
        <mxCell id="0" />
        <mxCell id="1" parent="0" />
        <mxCell id="mk_2Ti2wkmd_IoMYLZ9Q-1" value="Предприятие по сборке и продаже компьютеров" style="swimlane;whiteSpace=wrap;html=1;rounded=1;" parent="1" vertex="1">
          <mxGeometry x="400" y="140" width="540" height="740" as="geometry" />
        </mxCell>
        <mxCell id="mk_2Ti2wkmd_IoMYLZ9Q-9" value="Работа с заказом" style="ellipse;whiteSpace=wrap;html=1;rounded=1;" parent="mk_2Ti2wkmd_IoMYLZ9Q-1" vertex="1">
          <mxGeometry x="30" y="40" width="120" height="80" as="geometry" />
        </mxCell>
        <mxCell id="mk_2Ti2wkmd_IoMYLZ9Q-12" style="edgeStyle=orthogonalEdgeStyle;rounded=1;orthogonalLoop=1;jettySize=auto;html=1;entryX=1;entryY=0.5;entryDx=0;entryDy=0;dashed=1;endArrow=open;endFill=0;" parent="mk_2Ti2wkmd_IoMYLZ9Q-1" source="mk_2Ti2wkmd_IoMYLZ9Q-11" target="mk_2Ti2wkmd_IoMYLZ9Q-9" edge="1">
          <mxGeometry relative="1" as="geometry" />
        </mxCell>
        <mxCell id="mk_2Ti2wkmd_IoMYLZ9Q-11" value="Управление информацией о клиенте" style="ellipse;whiteSpace=wrap;html=1;rounded=1;" parent="mk_2Ti2wkmd_IoMYLZ9Q-1" vertex="1">
          <mxGeometry x="250" y="40" width="120" height="80" as="geometry" />
        </mxCell>
        <mxCell id="mk_2Ti2wkmd_IoMYLZ9Q-14" value="&#xa;Управление информацией о поставщиках&#xa;&#xa;" style="ellipse;whiteSpace=wrap;html=1;rounded=1;" parent="mk_2Ti2wkmd_IoMYLZ9Q-1" vertex="1">
          <mxGeometry x="30" y="180" width="120" height="80" as="geometry" />
        </mxCell>
        <mxCell id="mk_2Ti2wkmd_IoMYLZ9Q-16" value="&#xa;Управление информацией о комплектующих&#xa;&#xa;" style="ellipse;whiteSpace=wrap;html=1;rounded=1;" parent="mk_2Ti2wkmd_IoMYLZ9Q-1" vertex="1">
          <mxGeometry x="30" y="280" width="120" height="80" as="geometry" />
        </mxCell>
        <mxCell id="mk_2Ti2wkmd_IoMYLZ9Q-25" style="edgeStyle=orthogonalEdgeStyle;rounded=1;orthogonalLoop=1;jettySize=auto;html=1;entryX=0;entryY=0.5;entryDx=0;entryDy=0;dashed=1;endArrow=open;endFill=0;" parent="mk_2Ti2wkmd_IoMYLZ9Q-1" source="mk_2Ti2wkmd_IoMYLZ9Q-21" target="mk_2Ti2wkmd_IoMYLZ9Q-23" edge="1">
          <mxGeometry relative="1" as="geometry" />
        </mxCell>
        <mxCell id="mk_2Ti2wkmd_IoMYLZ9Q-21" value="Сборка компьютеров" style="ellipse;whiteSpace=wrap;html=1;rounded=1;" parent="mk_2Ti2wkmd_IoMYLZ9Q-1" vertex="1">
          <mxGeometry x="30" y="390" width="120" height="80" as="geometry" />
        </mxCell>
        <mxCell id="mk_2Ti2wkmd_IoMYLZ9Q-23" value="&#xa;Требование необходимых комплектующих&#xa;&#xa;" style="ellipse;whiteSpace=wrap;html=1;rounded=1;" parent="mk_2Ti2wkmd_IoMYLZ9Q-1" vertex="1">
          <mxGeometry x="250" y="390" width="120" height="80" as="geometry" />
        </mxCell>
        <mxCell id="mk_2Ti2wkmd_IoMYLZ9Q-27" value="&#xa;Учет поступления и выдачи комплектующих&#xa;&#xa;" style="ellipse;whiteSpace=wrap;html=1;rounded=1;" parent="mk_2Ti2wkmd_IoMYLZ9Q-1" vertex="1">
          <mxGeometry x="20" y="510" width="140" height="90" as="geometry" />
        </mxCell>
        <mxCell id="mk_2Ti2wkmd_IoMYLZ9Q-29" value="Тестирование компьютеров" style="ellipse;whiteSpace=wrap;html=1;rounded=1;" parent="mk_2Ti2wkmd_IoMYLZ9Q-1" vertex="1">
          <mxGeometry x="30" y="630" width="120" height="80" as="geometry" />
        </mxCell>
        <mxCell id="mk_2Ti2wkmd_IoMYLZ9Q-10" style="edgeStyle=orthogonalEdgeStyle;rounded=1;orthogonalLoop=1;jettySize=auto;html=1;endArrow=none;endFill=0;" parent="1" source="mk_2Ti2wkmd_IoMYLZ9Q-2" target="mk_2Ti2wkmd_IoMYLZ9Q-9" edge="1">
          <mxGeometry relative="1" as="geometry" />
        </mxCell>
        <mxCell id="mk_2Ti2wkmd_IoMYLZ9Q-2" value="Менеджер по работе с клиентами" style="shape=umlActor;verticalLabelPosition=bottom;verticalAlign=top;html=1;outlineConnect=0;rounded=1;" parent="1" vertex="1">
          <mxGeometry x="270" y="190" width="30" height="60" as="geometry" />
        </mxCell>
        <mxCell id="mk_2Ti2wkmd_IoMYLZ9Q-15" style="edgeStyle=orthogonalEdgeStyle;rounded=1;orthogonalLoop=1;jettySize=auto;html=1;entryX=0;entryY=0.5;entryDx=0;entryDy=0;endArrow=none;endFill=0;" parent="1" source="mk_2Ti2wkmd_IoMYLZ9Q-4" target="mk_2Ti2wkmd_IoMYLZ9Q-14" edge="1">
          <mxGeometry relative="1" as="geometry" />
        </mxCell>
        <mxCell id="mk_2Ti2wkmd_IoMYLZ9Q-17" style="edgeStyle=orthogonalEdgeStyle;rounded=1;orthogonalLoop=1;jettySize=auto;html=1;entryX=0;entryY=0.5;entryDx=0;entryDy=0;endArrow=none;endFill=0;" parent="1" source="mk_2Ti2wkmd_IoMYLZ9Q-4" target="mk_2Ti2wkmd_IoMYLZ9Q-16" edge="1">
          <mxGeometry relative="1" as="geometry">
            <Array as="points">
              <mxPoint x="380" y="360" />
              <mxPoint x="380" y="460" />
            </Array>
          </mxGeometry>
        </mxCell>
        <mxCell id="mk_2Ti2wkmd_IoMYLZ9Q-4" value="Менеджер по снабжению" style="shape=umlActor;verticalLabelPosition=bottom;verticalAlign=top;html=1;outlineConnect=0;rounded=1;" parent="1" vertex="1">
          <mxGeometry x="270" y="330" width="30" height="60" as="geometry" />
        </mxCell>
        <mxCell id="mk_2Ti2wkmd_IoMYLZ9Q-19" style="edgeStyle=orthogonalEdgeStyle;orthogonalLoop=1;jettySize=auto;html=1;entryX=0.5;entryY=0;entryDx=0;entryDy=0;entryPerimeter=0;rounded=1;" parent="1" source="mk_2Ti2wkmd_IoMYLZ9Q-5" target="mk_2Ti2wkmd_IoMYLZ9Q-18" edge="1">
          <mxGeometry relative="1" as="geometry" />
        </mxCell>
        <mxCell id="mk_2Ti2wkmd_IoMYLZ9Q-5" value="Инженер по сборке настольных компьютеров" style="shape=umlActor;verticalLabelPosition=bottom;verticalAlign=top;html=1;outlineConnect=0;rounded=1;" parent="1" vertex="1">
          <mxGeometry x="20" y="450" width="30" height="60" as="geometry" />
        </mxCell>
        <mxCell id="mk_2Ti2wkmd_IoMYLZ9Q-20" style="edgeStyle=orthogonalEdgeStyle;orthogonalLoop=1;jettySize=auto;html=1;rounded=1;entryX=0.25;entryY=0.1;entryDx=0;entryDy=0;entryPerimeter=0;" parent="1" target="mk_2Ti2wkmd_IoMYLZ9Q-18" edge="1">
          <mxGeometry relative="1" as="geometry">
            <mxPoint x="60" y="590" as="sourcePoint" />
            <Array as="points">
              <mxPoint x="170" y="590" />
              <mxPoint x="170" y="546" />
            </Array>
          </mxGeometry>
        </mxCell>
        <mxCell id="mk_2Ti2wkmd_IoMYLZ9Q-6" value="Инженер по сборке ноутбуков" style="shape=umlActor;verticalLabelPosition=bottom;verticalAlign=top;html=1;outlineConnect=0;rounded=1;" parent="1" vertex="1">
          <mxGeometry x="20" y="555" width="30" height="60" as="geometry" />
        </mxCell>
        <mxCell id="mk_2Ti2wkmd_IoMYLZ9Q-30" style="edgeStyle=orthogonalEdgeStyle;rounded=1;orthogonalLoop=1;jettySize=auto;html=1;entryX=0;entryY=0.5;entryDx=0;entryDy=0;endArrow=none;endFill=0;" parent="1" source="mk_2Ti2wkmd_IoMYLZ9Q-7" target="mk_2Ti2wkmd_IoMYLZ9Q-29" edge="1">
          <mxGeometry relative="1" as="geometry" />
        </mxCell>
        <mxCell id="mk_2Ti2wkmd_IoMYLZ9Q-7" value="Инженер по тестированию" style="shape=umlActor;verticalLabelPosition=bottom;verticalAlign=top;html=1;outlineConnect=0;rounded=1;" parent="1" vertex="1">
          <mxGeometry x="270" y="780" width="30" height="60" as="geometry" />
        </mxCell>
        <mxCell id="mk_2Ti2wkmd_IoMYLZ9Q-28" style="edgeStyle=orthogonalEdgeStyle;rounded=1;orthogonalLoop=1;jettySize=auto;html=1;entryX=0;entryY=0.5;entryDx=0;entryDy=0;endArrow=none;endFill=0;" parent="1" source="mk_2Ti2wkmd_IoMYLZ9Q-8" target="mk_2Ti2wkmd_IoMYLZ9Q-27" edge="1">
          <mxGeometry relative="1" as="geometry" />
        </mxCell>
        <mxCell id="mk_2Ti2wkmd_IoMYLZ9Q-8" value="Завскладом" style="shape=umlActor;verticalLabelPosition=bottom;verticalAlign=top;html=1;outlineConnect=0;rounded=1;" parent="1" vertex="1">
          <mxGeometry x="270" y="665" width="30" height="60" as="geometry" />
        </mxCell>
        <mxCell id="mk_2Ti2wkmd_IoMYLZ9Q-13" value="extend" style="text;html=1;align=center;verticalAlign=middle;resizable=0;points=[];autosize=1;strokeColor=none;fillColor=none;rounded=1;" parent="1" vertex="1">
          <mxGeometry x="570" y="195" width="60" height="30" as="geometry" />
        </mxCell>
        <mxCell id="mk_2Ti2wkmd_IoMYLZ9Q-22" style="edgeStyle=orthogonalEdgeStyle;rounded=1;orthogonalLoop=1;jettySize=auto;html=1;entryX=0;entryY=0.5;entryDx=0;entryDy=0;endArrow=none;endFill=0;" parent="1" source="mk_2Ti2wkmd_IoMYLZ9Q-18" target="mk_2Ti2wkmd_IoMYLZ9Q-21" edge="1">
          <mxGeometry relative="1" as="geometry" />
        </mxCell>
        <mxCell id="mk_2Ti2wkmd_IoMYLZ9Q-18" value="Менеджер по сборке" style="shape=umlActor;verticalLabelPosition=bottom;verticalAlign=top;html=1;outlineConnect=0;rounded=1;" parent="1" vertex="1">
          <mxGeometry x="270" y="540" width="30" height="60" as="geometry" />
        </mxCell>
        <mxCell id="mk_2Ti2wkmd_IoMYLZ9Q-26" value="include" style="text;html=1;align=center;verticalAlign=middle;resizable=0;points=[];autosize=1;strokeColor=none;fillColor=none;" parent="1" vertex="1">
          <mxGeometry x="570" y="545" width="60" height="30" as="geometry" />
        </mxCell>
      </root>
    </mxGraphModel>
  </diagram>
</mxfile>
